<svg width="95" height="93" viewBox="0 0 95 93" fill="none" xmlns="http://www.w3.org/2000/svg">
<path d="M65.9329 12.2401C65.9329 19.0029 60.4503 25.5033 53.6928 25.5033C46.9353 25.5033 41.4526 19.0029 41.4526 12.2401C41.4526 5.47737 46.9353 0 53.6928 0C60.4503 0 65.9329 5.48261 65.9329 12.2401Z" fill="#F7F8FF"/>
<path d="M74.4953 7.64943L73.5824 7.14052C72.8164 6.71555 71.8773 7.26643 71.8773 8.1426V9.6536C71.8773 11.684 71.4838 13.6987 70.7231 15.5822L70.0148 17.3293L71.1953 18.1267C79.4008 23.6513 84.2959 33.0531 84.2959 43.2733V43.5041C84.2959 60.6288 70.8018 74.0494 53.5722 74.0494C36.3427 74.0494 23.0742 61.017 23.0742 43.735V43.5041C23.0742 33.2839 27.9902 23.8349 36.2272 18.2369L37.4077 17.4342L36.862 16.1121C35.9754 13.9557 35.5137 11.6735 35.498 9.32307V8.27901C35.4822 7.40284 34.5378 6.8572 33.7718 7.29267L32.8642 7.81207C20.0784 15.1152 12.4448 28.4624 12.4448 43.5094V43.7927C12.4448 51.3162 14.3755 58.5197 18.0533 64.7945C18.4625 65.4923 18.3681 66.3737 17.7962 66.9456L1.68414 83.0576C0.598115 84.1437 0 85.5865 0 87.1237C0 88.6609 0.598115 90.1037 1.68414 91.1898C2.8069 92.3125 4.27592 92.8686 5.7502 92.8686C7.22447 92.8686 8.69349 92.3073 9.81625 91.1898L25.1571 75.8489C25.7866 75.2194 26.7887 75.1564 27.4865 75.7178C34.7057 81.5047 43.8399 84.6631 53.5512 84.6631C76.7513 84.6631 94.9201 66.5888 94.9201 43.5094V43.2261C94.9201 28.1476 87.2811 14.8529 74.4901 7.65468L74.4953 7.64943Z" fill="#F7F8FF"/>
<path d="M64.2699 28.2525C63.4095 27.6806 62.2762 27.7383 61.5102 28.4309C59.8523 29.9366 57.7852 33.8138 55.4925 34.2493L55.3193 34.2807C54.2438 34.4906 53.1368 34.4906 52.0613 34.2807L51.8881 34.2493C49.5954 33.8191 47.5283 29.9366 45.8704 28.4309C45.1254 27.7541 44.0079 27.6544 43.1684 28.2105C37.3605 32.0667 30.7761 42.3132 31.0227 50.7496C31.3585 62.2709 42.1453 63.0736 53.6877 62.974C65.23 63.0684 76.0169 62.2657 76.3527 50.7496C76.5992 42.3447 70.0568 32.1192 64.2647 28.2525H64.2699Z" fill="#F7F8FF"/>
</svg>
