<svg width="24" height="25" viewBox="0 0 24 25" xmlns="http://www.w3.org/2000/svg">
<path fill-rule="evenodd" clip-rule="evenodd" d="M0 3.75244C0 3.33823 0.335786 3.00244 0.75 3.00244H8.24687C9.81303 3.00244 11.1924 3.80256 11.9984 5.01645C12.8044 3.80261 14.1838 3.00244 15.75 3.00244H23.25C23.6642 3.00244 24 3.33823 24 3.75244V18.815C24 19.0148 23.9203 19.2063 23.7785 19.3471C23.6368 19.4879 23.4447 19.5663 23.2449 19.565L15.5631 19.513C14.7604 19.5076 13.989 19.8241 13.4215 20.3916L12.5303 21.2828C12.2374 21.5757 11.7626 21.5757 11.4697 21.2828L10.568 20.3811C10.0054 19.8185 9.24235 19.5024 8.4467 19.5024H0.75C0.335786 19.5024 0 19.1667 0 18.7524V3.75244ZM11.2469 7.49994C11.2455 5.84406 9.90275 4.50244 8.24687 4.50244H1.5V18.0024H8.4467C9.46997 18.0024 10.4573 18.351 11.25 18.9823L11.2469 7.49994ZM12.75 18.9844V7.50244C12.75 5.84559 14.0931 4.50244 15.75 4.50244H22.5V18.0599L15.5732 18.0131C14.5439 18.0061 13.549 18.352 12.75 18.9844Z"/>
</svg>
