<svg width="24" height="25" viewBox="0 0 24 25" xmlns="http://www.w3.org/2000/svg">
<path d="M15.25 14.0024C14.8358 14.0024 14.5 14.3382 14.5 14.7524C14.5 15.1667 14.8358 15.5024 15.25 15.5024H18.75C19.1642 15.5024 19.5 15.1667 19.5 14.7524C19.5 14.3382 19.1642 14.0024 18.75 14.0024H15.25Z" />
<path fill-rule="evenodd" clip-rule="evenodd" d="M1.75 3.00244C0.783502 3.00244 0 3.78594 0 4.75244V19.2524C0 20.2189 0.783502 21.0024 1.75 21.0024H22.25C23.2165 21.0024 24 20.2189 24 19.2524V4.75244C24 3.78594 23.2165 3.00244 22.25 3.00244H1.75ZM1.5 4.75244C1.5 4.61437 1.61193 4.50244 1.75 4.50244H22.25C22.3881 4.50244 22.5 4.61437 22.5 4.75244V8.50244H1.5V4.75244ZM1.5 10.0024V19.2524C1.5 19.3905 1.61193 19.5024 1.75 19.5024H22.25C22.3881 19.5024 22.5 19.3905 22.5 19.2524V10.0024H1.5Z" />
</svg>
