<svg width="24" height="24" viewBox="0 0 24 24" xmlns="http://www.w3.org/2000/svg">
<path fill-rule="evenodd" clip-rule="evenodd" d="M5.625 0C4.17525 0 3 1.17525 3 2.625V21.375C3 22.8248 4.17525 24 5.625 24H18.375C19.8248 24 21 22.8248 21 21.375V2.625C21 1.17525 19.8248 0 18.375 0H5.625ZM5.25 2.625C5.25 2.4179 5.4179 2.25 5.625 2.25H18.375C18.5822 2.25 18.75 2.4179 18.75 2.625V21.375C18.75 21.5821 18.5822 21.75 18.375 21.75H5.625C5.4179 21.75 5.25 21.5821 5.25 21.375V2.625ZM12 19.5C12.8284 19.5 13.5 18.8284 13.5 18C13.5 17.1716 12.8284 16.5 12 16.5C11.1716 16.5 10.5 17.1716 10.5 18C10.5 18.8284 11.1716 19.5 12 19.5Z"/>
</svg>
