<svg width="23" height="23" viewBox="0 0 23 23" xmlns="http://www.w3.org/2000/svg">
<path fill-rule="evenodd" clip-rule="evenodd" d="M11.7464 2.15008C11.5704 2.07579 11.3719 2.07579 11.1959 2.15008L0.582722 6.63121C0.320699 6.74184 0.150391 6.99862 0.150391 7.28304C0.150391 7.56746 0.320699 7.82423 0.582722 7.93487L4.15982 9.4452V13.0335C3.70116 13.1524 3.26584 13.3895 2.90775 13.7476C2.36173 14.2936 2.03718 15.0781 2.03718 16.0388V20.2841C2.03718 20.5193 2.15789 20.7435 2.3533 20.8735C2.40908 20.9105 2.46406 20.9422 2.56093 20.9907C2.67752 21.049 2.84111 21.1211 3.05161 21.1912C3.47361 21.3319 4.07973 21.4634 4.86737 21.4634C5.65498 21.4634 6.26108 21.332 6.68306 21.1913C6.89356 21.1212 7.05714 21.0491 7.17373 20.9908C7.26508 20.9452 7.31849 20.9138 7.37176 20.88C7.57127 20.7502 7.69756 20.523 7.69756 20.2843V16.039C7.69756 15.0782 7.37302 14.2937 6.82701 13.7477C6.46892 13.3896 6.0336 13.1525 5.57492 13.0335V10.0427L11.1959 12.416C11.3719 12.4903 11.5704 12.4903 11.7464 12.416L16.6598 10.3414V14.1171C16.6385 14.1412 16.6138 14.1679 16.5855 14.197C16.4332 14.3537 16.1764 14.5791 15.7843 14.8105C15.0049 15.2705 13.6574 15.7736 11.4712 15.7736C10.8937 15.7736 10.3753 15.7385 9.9108 15.6785C9.52324 15.6285 9.16852 15.9021 9.1185 16.2897C9.06847 16.6772 9.3421 17.032 9.72965 17.082C10.2572 17.1501 10.8363 17.1887 11.4712 17.1887C13.884 17.1887 15.4846 16.6305 16.5035 16.0292C17.0106 15.7299 17.3656 15.4246 17.6002 15.1834C17.7355 15.0442 17.8686 14.8947 17.9705 14.7284L17.9711 14.7275C18.039 14.6164 18.0749 14.4887 18.0749 14.3585V9.74393L22.3596 7.93487C22.6216 7.82423 22.7919 7.56746 22.7919 7.28304C22.7919 6.99862 22.6216 6.74184 22.3596 6.63121L11.7464 2.15008ZM4.86731 14.3585C4.86729 14.3585 4.86733 14.3585 4.86731 14.3585C4.51168 14.3585 4.16497 14.4916 3.90836 14.7482C3.65839 14.9982 3.45228 15.4077 3.45228 16.0388V19.8327C3.73426 19.932 4.20441 20.0484 4.86737 20.0484C5.53031 20.0484 6.00046 19.9321 6.28247 19.8328V16.039C6.28247 15.4078 6.07635 14.9983 5.82637 14.7483C5.56974 14.4917 5.22295 14.3585 4.86731 14.3585ZM11.4711 10.9961L2.67696 7.28304L11.4711 3.56994L20.2653 7.28304L11.4711 10.9961Z"/>
</svg>
