<svg width="24" height="25" viewBox="0 0 24 25" xmlns="http://www.w3.org/2000/svg">
<path fill-rule="evenodd" clip-rule="evenodd" d="M12 1.00244C5.92487 1.00244 1 5.92731 1 12.0024C1 18.0776 5.92487 23.0024 12 23.0024C18.0751 23.0024 23 18.0776 23 12.0024C23 5.92731 18.0751 1.00244 12 1.00244ZM2.51293 11.5024H7.25824C7.35853 8.46561 8.35738 6.0121 9.35123 4.29858C9.74121 3.62619 10.1317 3.06543 10.4696 2.62507C6.1109 3.33098 2.74627 7.00253 2.51293 11.5024ZM7.28307 13.0024H2.552C2.99867 17.2721 6.27348 20.7002 10.4695 21.3798C10.1317 20.9395 9.7412 20.3787 9.35123 19.7063C8.41252 18.0879 7.46933 15.8092 7.28307 13.0024ZM8.78678 13.0024H15.2132C15.0302 15.4817 14.1929 17.5026 13.3512 18.9537C12.8754 19.7741 12.4005 20.4082 12.0475 20.8343L12 20.8912L11.9525 20.8343C11.5995 20.4082 11.1246 19.7741 10.6488 18.9537C9.80711 17.5026 8.96979 15.4817 8.78678 13.0024ZM15.2408 11.5024H8.75916C8.8586 8.79412 9.75121 6.59867 10.6488 5.05115C11.1246 4.23079 11.5995 3.59669 11.9525 3.17062L12 3.11368L12.0475 3.17062C12.4005 3.59669 12.8754 4.23079 13.3512 5.05115C14.2488 6.59867 15.1414 8.79412 15.2408 11.5024ZM16.7169 13.0024C16.5307 15.8092 15.5875 18.0879 14.6488 19.7063C14.2588 20.3787 13.8683 20.9395 13.5305 21.3798C17.7265 20.7002 21.0013 17.2721 21.448 13.0024H16.7169ZM21.4871 11.5024H16.7418C16.6415 8.46561 15.6426 6.0121 14.6488 4.29858C14.2588 3.62619 13.8683 3.06543 13.5304 2.62507C17.8891 3.33098 21.2537 7.00253 21.4871 11.5024Z" />
</svg>
