<svg width="38" height="38" viewBox="0 0 38 38" fill="none" xmlns="http://www.w3.org/2000/svg">
<rect y="0.00244141" width="37.7915" height="37.7915" rx="9" fill="url(#paint0_linear_116_16786)"/>
<path d="M15.7506 18.9465C15.7506 17.2057 17.161 15.7942 18.9013 15.7942C20.6416 15.7942 22.0527 17.2057 22.0527 18.9465C22.0527 20.6873 20.6416 22.0989 18.9013 22.0989C17.161 22.0989 15.7506 20.6873 15.7506 18.9465ZM14.047 18.9465C14.047 21.6283 16.2203 23.8022 18.9013 23.8022C21.5823 23.8022 23.7556 21.6283 23.7556 18.9465C23.7556 16.2647 21.5823 14.0908 18.9013 14.0908C16.2203 14.0908 14.047 16.2647 14.047 18.9465ZM22.8133 13.8983C22.8133 14.1227 22.8797 14.3422 23.0043 14.5288C23.1289 14.7155 23.306 14.861 23.5132 14.947C23.7205 15.0329 23.9486 15.0555 24.1686 15.0118C24.3887 14.9681 24.5909 14.8601 24.7496 14.7015C24.9083 14.5428 25.0164 14.3407 25.0603 14.1206C25.1042 13.9005 25.0818 13.6723 24.996 13.4649C24.9102 13.2575 24.7649 13.0803 24.5784 12.9555C24.3919 12.8307 24.1726 12.7641 23.9482 12.764H23.9478C23.647 12.7641 23.3586 12.8837 23.1459 13.0964C22.9332 13.309 22.8136 13.5975 22.8133 13.8983ZM15.0821 26.6437C14.1604 26.6017 13.6594 26.4482 13.3265 26.3184C12.8851 26.1465 12.5702 25.9418 12.2391 25.6111C11.908 25.2803 11.7031 24.9656 11.532 24.5241C11.4022 24.1913 11.2487 23.69 11.2068 22.7681C11.161 21.7713 11.1518 21.4719 11.1518 18.9466C11.1518 16.4213 11.1617 16.1227 11.2068 15.1251C11.2488 14.2032 11.4034 13.7029 11.532 13.3691C11.7038 12.9276 11.9085 12.6125 12.2391 12.2814C12.5698 11.9502 12.8844 11.7451 13.3265 11.574C13.6593 11.4442 14.1604 11.2906 15.0821 11.2487C16.0786 11.2029 16.3779 11.1937 18.9013 11.1937C21.4247 11.1937 21.7244 11.2036 22.7217 11.2487C23.6434 11.2907 24.1435 11.4454 24.4772 11.574C24.9186 11.7451 25.2335 11.9506 25.5646 12.2814C25.8957 12.6121 26.0999 12.9276 26.2718 13.3691C26.4015 13.7019 26.5551 14.2032 26.597 15.1251C26.6428 16.1227 26.6519 16.4213 26.6519 18.9466C26.6519 21.4719 26.6428 21.7705 26.597 22.7681C26.555 23.69 26.4007 24.1911 26.2718 24.5241C26.0999 24.9656 25.8953 25.2806 25.5646 25.6111C25.234 25.9415 24.9186 26.1465 24.4772 26.3184C24.1445 26.4482 23.6434 26.6018 22.7217 26.6437C21.7252 26.6896 21.4259 26.6987 18.9013 26.6987C16.3768 26.6987 16.0783 26.6896 15.0821 26.6437ZM15.0038 9.5475C13.9974 9.59335 13.3097 9.75297 12.7092 9.98673C12.0872 10.2281 11.5607 10.552 11.0345 11.0775C10.5084 11.6029 10.1854 12.1304 9.9441 12.7526C9.71041 13.3537 9.55084 14.0412 9.505 15.0479C9.45842 16.0561 9.44775 16.3785 9.44775 18.9465C9.44775 21.5145 9.45842 21.8369 9.505 22.8452C9.55084 23.8519 9.71041 24.5393 9.9441 25.1405C10.1854 25.7622 10.5084 26.2903 11.0345 26.8156C11.5606 27.3408 12.0872 27.6642 12.7092 27.9063C13.3109 28.1401 13.9974 28.2997 15.0038 28.3455C16.0123 28.3914 16.334 28.4028 18.9013 28.4028C21.4686 28.4028 21.7908 28.3921 22.7988 28.3455C23.8053 28.2997 24.4925 28.1401 25.0935 27.9063C25.7151 27.6642 26.242 27.3411 26.7681 26.8156C27.2943 26.2901 27.6165 25.7622 27.8585 25.1405C28.0922 24.5393 28.2525 23.8518 28.2976 22.8452C28.3434 21.8361 28.3541 21.5145 28.3541 18.9465C28.3541 16.3785 28.3434 16.0561 28.2976 15.0479C28.2518 14.0411 28.0922 13.3533 27.8585 12.7526C27.6165 12.1308 27.2934 11.6038 26.7681 11.0775C26.2428 10.5512 25.7151 10.2281 25.0942 9.98673C24.4925 9.75297 23.8052 9.59259 22.7996 9.5475C21.7916 9.50166 21.4693 9.49023 18.9021 9.49023C16.3348 9.49023 16.0123 9.5009 15.0038 9.5475Z" fill="white"/>
<defs>
<linearGradient id="paint0_linear_116_16786" x1="37.0652" y1="37.794" x2="-0.726352" y2="0.00244039" gradientUnits="userSpaceOnUse">
<stop stop-color="#FBE18A"/>
<stop offset="0.21" stop-color="#FCBB45"/>
<stop offset="0.38" stop-color="#F75274"/>
<stop offset="0.52" stop-color="#D53692"/>
<stop offset="0.74" stop-color="#8F39CE"/>
<stop offset="1" stop-color="#5B4FE9"/>
</linearGradient>
</defs>
</svg>
