<svg width="24" height="25" viewBox="0 0 24 25"  xmlns="http://www.w3.org/2000/svg">
<path fill-rule="evenodd" clip-rule="evenodd" d="M5.96151 2.51527C6.0925 2.90823 5.88013 3.33297 5.48717 3.46395L4.67094 3.73603C4.56886 3.77006 4.5 3.86559 4.5 3.9732V21.2524C4.5 21.3905 4.61193 21.5024 4.75 21.5024H19.25C19.3881 21.5024 19.5 21.3905 19.5 21.2524V3.9732C19.5 3.86559 19.4311 3.77006 19.3291 3.73603L18.5128 3.46395C18.1199 3.33297 17.9075 2.90823 18.0385 2.51527C18.1695 2.12231 18.5942 1.90994 18.9872 2.04093L19.8034 2.313C20.518 2.5512 21 3.21995 21 3.9732V21.2524C21 22.2189 20.2165 23.0024 19.25 23.0024H4.75C3.7835 23.0024 3 22.2189 3 21.2524V3.9732C3 3.21995 3.482 2.5512 4.1966 2.313L5.01283 2.04093C5.40579 1.90994 5.83053 2.12231 5.96151 2.51527Z" />
<path fill-rule="evenodd" clip-rule="evenodd" d="M7 1.75244C7 0.785943 7.7835 0.00244141 8.75 0.00244141H15.25C16.2165 0.00244141 17 0.785943 17 1.75244V3.25244C17 4.21894 16.2165 5.00244 15.25 5.00244H8.75C7.7835 5.00244 7 4.21894 7 3.25244V1.75244ZM8.75 1.50244C8.61193 1.50244 8.5 1.61437 8.5 1.75244V3.25244C8.5 3.39051 8.61193 3.50244 8.75 3.50244H15.25C15.3881 3.50244 15.5 3.39051 15.5 3.25244V1.75244C15.5 1.61437 15.3881 1.50244 15.25 1.50244H8.75Z" />
</svg>
