<svg width="38" height="39" viewBox="0 0 38 39" fill="none" xmlns="http://www.w3.org/2000/svg">
<rect y="0.781738" width="37.8006" height="37.8006" rx="9" fill="#006699"/>
<path d="M14.5523 27.3418V17.1308H11.1613V27.3418H14.5526H14.5523ZM12.8575 15.7369C14.0398 15.7369 14.7758 14.9528 14.7758 13.9729C14.7537 12.9707 14.0398 12.2085 12.88 12.2085C11.7194 12.2085 10.9614 12.9707 10.9614 13.9728C10.9614 14.9527 11.6972 15.7368 12.8353 15.7368H12.8572L12.8575 15.7369ZM16.4292 27.3418H19.8199V21.6401C19.8199 21.3354 19.8421 21.0298 19.9317 20.8121C20.1767 20.2021 20.7346 19.5707 21.6716 19.5707C22.8983 19.5707 23.3893 20.507 23.3893 21.8798V27.3418H26.7799V21.4871C26.7799 18.3509 25.1073 16.8914 22.8763 16.8914C21.0473 16.8914 20.2439 17.9146 19.7976 18.6115H19.8202V17.1311H16.4294C16.4737 18.0891 16.4291 27.3422 16.4291 27.3422L16.4292 27.3418Z" fill="white"/>
</svg>
