<svg width="831" height="678" viewBox="0 0 831 678" fill="none" xmlns="http://www.w3.org/2000/svg">
<path d="M697.804 57.0454C690.788 53.253 687.584 56.4007 685.043 53.253C682.502 50.1053 692.059 41.762 672.907 33.4756C672.907 33.4756 671.636 15.5944 645.469 14.9686C619.301 14.3429 626.336 32.8309 619.32 37.287C612.304 41.7431 610.389 34.7461 603.373 39.1832C596.357 43.6203 599.581 52.5894 593.797 53.8598C588.014 55.1303 580.391 48.1712 573.375 52.5894C566.359 57.0075 566.359 60.8758 563.173 60.8758C559.988 60.8758 553.598 58.3349 549.767 60.8758C545.937 63.4167 541.481 66.5644 541.481 66.5644H702.905C702.905 66.5644 704.82 60.8568 697.804 57.0454Z" fill="#62D0FF"/>
<path opacity="0.7" d="M697.804 57.0454C690.788 53.253 687.584 56.4007 685.043 53.253C682.502 50.1053 692.059 41.762 672.907 33.4756C672.907 33.4756 671.636 15.5944 645.469 14.9686C619.301 14.3429 626.336 32.8309 619.32 37.287C612.304 41.7431 610.389 34.7461 603.373 39.1832C596.357 43.6203 599.581 52.5894 593.797 53.8598C588.014 55.1303 580.391 48.1712 573.375 52.5894C566.359 57.0075 566.359 60.8758 563.173 60.8758C559.988 60.8758 553.598 58.3349 549.767 60.8758C545.937 63.4167 541.481 66.5644 541.481 66.5644H702.905C702.905 66.5644 704.82 60.8568 697.804 57.0454Z" fill="white"/>
<path d="M598.462 25.9666C594.119 23.5963 592.147 25.5684 590.573 23.5963C589 21.6243 594.916 16.5045 583.083 11.3848C583.083 11.3848 582.306 0.348837 566.131 0.00751996C549.957 -0.333797 554.318 11.0434 549.976 13.8119C545.633 16.5804 544.458 12.2191 540.115 14.9875C535.773 17.756 537.745 23.255 534.199 24.0514C530.653 24.8478 525.932 20.5055 521.589 23.255C517.247 26.0045 517.247 28.3937 515.275 28.3937C513.303 28.3937 509.378 26.8199 507.008 28.3937C504.637 29.9676 501.888 31.9396 501.888 31.9396H601.609C601.609 31.9396 602.785 28.3368 598.462 25.9666Z" fill="#62D0FF"/>
<path opacity="0.7" d="M598.462 25.9666C594.119 23.5963 592.147 25.5684 590.573 23.5963C589 21.6243 594.916 16.5045 583.083 11.3848C583.083 11.3848 582.306 0.348837 566.131 0.00751996C549.957 -0.333797 554.318 11.0434 549.976 13.8119C545.633 16.5804 544.458 12.2191 540.115 14.9875C535.773 17.756 537.745 23.255 534.199 24.0514C530.653 24.8478 525.932 20.5055 521.589 23.255C517.247 26.0045 517.247 28.3937 515.275 28.3937C513.303 28.3937 509.378 26.8199 507.008 28.3937C504.637 29.9676 501.888 31.9396 501.888 31.9396H601.609C601.609 31.9396 602.785 28.3368 598.462 25.9666Z" fill="white"/>
<path d="M116.996 113.799C112.673 111.428 110.701 113.4 109.127 111.428C107.553 109.456 113.45 104.337 101.542 99.2168C101.542 99.2168 100.745 88.1809 84.5898 87.8396C68.4341 87.4982 72.7575 98.8755 68.4152 101.644C64.0729 104.412 62.8972 100.051 58.5549 102.82C54.2126 105.588 56.2036 111.106 52.6577 111.883C49.1118 112.661 44.3713 108.338 40.029 111.106C35.6867 113.874 35.7056 116.226 33.7336 116.226C31.7615 116.226 27.8174 114.652 25.4471 116.226C23.0769 117.8 20.3274 119.772 20.3274 119.772H120.068C120.068 119.772 121.338 116.169 116.996 113.799Z" fill="#62D0FF"/>
<path opacity="0.7" d="M116.996 113.799C112.673 111.428 110.701 113.4 109.127 111.428C107.553 109.456 113.45 104.337 101.542 99.2168C101.542 99.2168 100.745 88.1809 84.5898 87.8396C68.4341 87.4982 72.7575 98.8755 68.4152 101.644C64.0729 104.412 62.8972 100.051 58.5549 102.82C54.2126 105.588 56.2036 111.106 52.6577 111.883C49.1118 112.661 44.3713 108.338 40.029 111.106C35.6867 113.874 35.7056 116.226 33.7336 116.226C31.7615 116.226 27.8174 114.652 25.4471 116.226C23.0769 117.8 20.3274 119.772 20.3274 119.772H120.068C120.068 119.772 121.338 116.169 116.996 113.799Z" fill="white"/>
<path d="M704.289 581.858H830.538C828.111 566.404 818.194 569.134 816.886 545.204C816.222 533.144 827.372 518.24 826.367 502.407C825.589 489.361 812.714 475.993 811.728 461.069C810.818 447.606 821.797 432.626 820.735 418.158C819.73 404.449 806.684 391.27 805.565 377.03C804.446 363.111 815.198 348.018 813.927 333.967C812.657 319.916 799.403 306.984 797.98 293.122C796.539 278.863 806.949 263.523 805.357 249.889C803.669 235.402 789.997 222.906 788.158 209.557C786.091 194.709 795.743 178.857 793.505 165.944C790.718 150.243 776.098 138.866 773.026 127.28C767.338 105.701 768.02 84.8811 761.251 83.5347C754.007 82.0747 752.377 102.497 746.897 125.251C744.147 136.629 729.831 148.309 727.498 164.029C725.602 176.752 735.69 192.244 734.04 207.035C732.561 220.308 719.25 233.013 717.942 247.405C716.728 260.944 727.536 275.848 726.474 290.032C725.432 303.798 712.518 316.92 711.627 330.895C710.736 344.87 721.886 359.528 721.108 373.332C720.331 387.478 707.645 400.827 707 414.442C706.318 428.834 717.676 443.359 717.126 456.727C716.5 471.518 704.004 485.17 703.53 498.007C702.98 513.708 714.509 528.214 714.149 540.16C713.391 566.119 701.501 560.734 701.084 581.63L704.289 581.858Z" fill="#62D0FF"/>
<path opacity="0.5" d="M704.289 581.858H830.538C828.111 566.404 818.194 569.134 816.886 545.204C816.222 533.144 827.372 518.24 826.367 502.407C825.589 489.361 812.714 475.993 811.728 461.069C810.818 447.606 821.797 432.626 820.735 418.158C819.73 404.449 806.684 391.27 805.565 377.03C804.446 363.111 815.198 348.018 813.927 333.967C812.657 319.916 799.403 306.984 797.98 293.122C796.539 278.863 806.949 263.523 805.357 249.889C803.669 235.402 789.997 222.906 788.158 209.557C786.091 194.709 795.743 178.857 793.505 165.944C790.718 150.243 776.098 138.866 773.026 127.28C767.338 105.701 768.02 84.8811 761.251 83.5347C754.007 82.0747 752.377 102.497 746.897 125.251C744.147 136.629 729.831 148.309 727.498 164.029C725.602 176.752 735.69 192.244 734.04 207.035C732.561 220.308 719.25 233.013 717.942 247.405C716.728 260.944 727.536 275.848 726.474 290.032C725.432 303.798 712.518 316.92 711.627 330.895C710.736 344.87 721.886 359.528 721.108 373.332C720.331 387.478 707.645 400.827 707 414.442C706.318 428.834 717.676 443.359 717.126 456.727C716.5 471.518 704.004 485.17 703.53 498.007C702.98 513.708 714.509 528.214 714.149 540.16C713.391 566.119 701.501 560.734 701.084 581.63L704.289 581.858Z" fill="white"/>
<path d="M758.482 125.1V576.036" stroke="black" stroke-miterlimit="10"/>
<path d="M778.203 172.372L757.648 190.12L740.829 167.707" stroke="black" stroke-miterlimit="10"/>
<path d="M778.203 250.856L757.648 268.624L740.829 246.191" stroke="black" stroke-miterlimit="10"/>
<path d="M778.203 324.675L757.648 342.424L740.829 320.011" stroke="black" stroke-miterlimit="10"/>
<path d="M778.203 412.507L757.648 430.256L740.829 407.843" stroke="black" stroke-miterlimit="10"/>
<path d="M778.203 501.269L757.648 519.037L740.829 496.604" stroke="black" stroke-miterlimit="10"/>
<path d="M31.4771 581.858H144.813C142.633 567.997 133.74 570.481 132.545 548.959C131.957 538.132 142.026 524.744 141.097 510.542C140.395 498.823 128.847 486.82 127.956 473.433C127.141 461.354 136.982 447.929 136.034 434.921C135.124 422.596 123.424 410.782 122.4 397.983C121.376 385.506 131.028 371.948 129.985 359.338C128.942 346.729 116.939 335.105 115.688 322.666C114.379 309.866 123.709 296.119 122.286 283.85C120.769 270.861 108.52 259.636 106.851 247.671C104.955 234.397 113.678 220.1 111.649 208.59C109.165 194.482 96.043 184.281 93.2745 173.87C88.1358 154.491 88.7615 135.814 82.6937 134.6C76.2086 133.292 74.7296 151.666 69.8184 172.088C67.3533 182.365 54.516 192.776 52.3923 206.902C50.6857 218.28 59.7685 232.217 58.2705 245.49C56.9432 257.379 44.9971 268.814 43.8404 281.727C42.7406 293.881 52.4302 307.288 51.4252 320.011C50.4961 332.355 38.9103 344.15 38.1518 356.684C37.3933 369.218 47.3673 382.377 46.6847 394.779C46.0021 407.18 34.5869 419.429 33.9991 431.679C33.3923 444.611 43.5939 457.638 43.0819 469.603C42.532 482.876 31.3065 495.05 30.8893 506.655C30.3963 520.762 40.7496 533.77 40.3703 544.579C39.6687 567.864 28.9931 563.048 28.6328 581.782L31.4771 581.858Z" fill="#62D0FF"/>
<path opacity="0.5" d="M31.4771 581.858H144.813C142.633 567.997 133.74 570.481 132.545 548.959C131.957 538.132 142.026 524.744 141.097 510.542C140.395 498.823 128.847 486.82 127.956 473.433C127.141 461.354 136.982 447.929 136.034 434.921C135.124 422.596 123.424 410.782 122.4 397.983C121.376 385.506 131.028 371.948 129.985 359.338C128.942 346.729 116.939 335.105 115.688 322.666C114.379 309.866 123.709 296.119 122.286 283.85C120.769 270.861 108.52 259.636 106.851 247.671C104.955 234.397 113.678 220.1 111.649 208.59C109.165 194.482 96.043 184.281 93.2745 173.87C88.1358 154.491 88.7615 135.814 82.6937 134.6C76.2086 133.292 74.7296 151.666 69.8184 172.088C67.3533 182.365 54.516 192.776 52.3923 206.902C50.6857 218.28 59.7685 232.217 58.2705 245.49C56.9432 257.379 44.9971 268.814 43.8404 281.727C42.7406 293.881 52.4302 307.288 51.4252 320.011C50.4961 332.355 38.9103 344.15 38.1518 356.684C37.3933 369.218 47.3673 382.377 46.6847 394.779C46.0021 407.18 34.5869 419.429 33.9991 431.679C33.3923 444.611 43.5939 457.638 43.0819 469.603C42.532 482.876 31.3065 495.05 30.8893 506.655C30.3963 520.762 40.7496 533.77 40.3703 544.579C39.6687 567.864 28.9931 563.048 28.6328 581.782L31.4771 581.858Z" fill="white"/>
<path d="M80.1147 171.842V576.625" stroke="black" stroke-miterlimit="10"/>
<path d="M97.8253 214.278L79.3752 230.226L64.2625 210.088" stroke="black" stroke-miterlimit="10"/>
<path d="M97.8253 284.741L79.3752 300.67L64.2625 280.551" stroke="black" stroke-miterlimit="10"/>
<path d="M97.8253 350.994L79.3752 366.941L64.2625 346.804" stroke="black" stroke-miterlimit="10"/>
<path d="M97.8253 429.839L79.3752 445.786L64.2625 425.648" stroke="black" stroke-miterlimit="10"/>
<path d="M97.8253 509.518L79.3752 525.465L64.2625 505.327" stroke="black" stroke-miterlimit="10"/>
<path d="M591.01 51.5459H149.156V623.006H591.01V51.5459Z" fill="white"/>
<path d="M591.01 137.349L149.156 600.307V623.005H591.01V137.349Z" fill="#62D0FF"/>
<path opacity="0.7" d="M591.01 137.349L149.156 600.307V623.005H591.01V137.349Z" fill="white"/>
<path d="M591.01 51.5459H149.156V623.006H591.01V51.5459Z" stroke="#263238" stroke-linecap="round" stroke-linejoin="round"/>
<path d="M591.01 51.5459H149.156V76.8792H591.01V51.5459Z" fill="#263238"/>
<path d="M601.097 51.5459H136.527V66.9241H601.097V51.5459Z" fill="white" stroke="#263238" stroke-linecap="round" stroke-linejoin="round"/>
<path d="M601.097 617.146H136.527V632.525H601.097V617.146Z" fill="#263238" stroke="#263238" stroke-linecap="round" stroke-linejoin="round"/>
<path d="M698.714 602.394L722.872 619.46C723.274 619.801 723.561 620.257 723.694 620.767C723.827 621.278 723.799 621.816 723.615 622.31C723.43 622.804 723.098 623.228 722.662 623.526C722.227 623.824 721.711 623.98 721.184 623.973H688.474C687.812 623.974 687.157 623.836 686.552 623.567C685.947 623.298 685.405 622.905 684.961 622.414C684.518 621.922 684.183 621.342 683.978 620.713C683.773 620.083 683.703 619.417 683.772 618.758L685.478 602.318L698.714 602.394Z" fill="white" stroke="#263238" stroke-linecap="round" stroke-linejoin="round"/>
<path d="M722.872 619.537L683.772 618.835" stroke="#263238" stroke-linecap="round" stroke-linejoin="round"/>
<path d="M623.643 231.668C623.643 231.668 607.715 266.406 603.373 278.694C599.03 290.981 601.211 317.054 602.652 329.36C604.093 341.667 608.455 352.513 622.923 354.011C637.391 355.509 653.262 347.507 659.102 340.264C664.943 333.02 660.543 255.598 660.543 243.31C660.543 231.023 631.512 210.677 623.643 231.668Z" fill="white" stroke="#263238" stroke-linecap="round" stroke-linejoin="round"/>
<path d="M715.097 209.178C715.097 209.178 720.501 256.261 723.403 282.314C726.304 308.368 722.682 322.836 719.781 332.242C716.88 341.647 706.754 360.457 706.754 360.457L701.691 311.971L715.097 209.178Z" fill="white" stroke="#263238" stroke-linecap="round" stroke-linejoin="round"/>
<path d="M656.922 192.169L627.739 209.31L635.115 323.424L706.526 322.476L715.097 209.178L687.375 190.272L656.922 192.169Z" fill="white" stroke="#263238" stroke-linecap="round" stroke-linejoin="round"/>
<path d="M645.26 199.11C645.26 199.11 664.07 242.514 664.07 251.919C664.07 261.324 623.397 332.83 623.397 332.83L626.393 342.823C626.393 342.823 673.476 252.734 673.476 249.909C673.476 247.084 651.764 194.919 651.764 194.919L645.26 199.11Z" fill="#263238" stroke="#263238" stroke-linecap="round" stroke-linejoin="round"/>
<path d="M627.739 209.311C627.739 209.311 620.647 213.577 619.206 224.48C617.765 235.383 611.962 299.02 615.584 307.705C619.206 316.389 626.45 310.587 632.233 307.705C638.016 304.822 644.501 239.631 644.501 239.631C644.501 239.631 642.321 226.604 637.258 218.64" fill="white"/>
<path d="M627.739 209.311C627.739 209.311 620.647 213.577 619.206 224.48C617.765 235.383 611.962 299.02 615.584 307.705C619.206 316.389 626.45 310.587 632.233 307.705C638.016 304.822 644.501 239.631 644.501 239.631C644.501 239.631 642.321 226.604 637.258 218.64" stroke="#263238" stroke-linecap="round" stroke-linejoin="round"/>
<path d="M668.981 182.024C668.981 182.024 660.088 182.024 658.837 186.461C657.795 189.628 656.294 192.625 654.38 195.355L673.343 213.748L683.487 201.688L698.088 211.169C698.088 211.169 698.714 195.317 698.088 190.311C697.462 185.305 682.236 181.437 682.236 181.437L668.981 182.024Z" fill="white" stroke="#263238" stroke-linecap="round" stroke-linejoin="round"/>
<path d="M666.441 165.527L667.711 187.732L683.563 204.874L691.186 188.377L690.56 168.694L666.441 165.527Z" fill="white" stroke="#263238" stroke-linecap="round" stroke-linejoin="round"/>
<path d="M683.924 116.32C683.924 116.32 701.407 120.928 701.407 132.893C701.407 144.858 701.539 160.729 696.818 167.025C690.105 175.842 683.013 184.508 675.637 184.508C668.261 184.508 658.837 170.135 657.908 164.617C657.168 160.199 658.458 139.302 658.894 130.182C658.972 128.524 659.377 126.898 660.086 125.398C660.796 123.897 661.795 122.552 663.027 121.44C666.649 118.122 673.134 114.765 683.924 116.32Z" fill="white" stroke="#263238" stroke-linecap="round" stroke-linejoin="round"/>
<path d="M661.567 141.123C662.301 141.034 663.045 141.114 663.743 141.355C664.441 141.596 665.076 141.993 665.598 142.515C666.121 143.038 666.517 143.672 666.759 144.37C667 145.069 667.079 145.813 666.99 146.546C666.99 152.576 662.781 160.427 664.582 162.228C666.357 163.529 668.431 164.364 670.612 164.655V171.292C670.612 171.292 674.234 175.501 680.871 168.865" stroke="#263238" stroke-linecap="round" stroke-linejoin="round"/>
<path d="M673.665 144.138C673.665 144.138 675.561 138.089 683.924 142.925" stroke="#263238" stroke-linecap="round" stroke-linejoin="round"/>
<path d="M677.287 151.363C677.287 153.031 677.837 154.397 678.5 154.397C679.164 154.397 679.714 153.031 679.714 151.363C679.714 149.694 679.164 148.348 678.5 148.348C677.837 148.348 677.287 149.713 677.287 151.363Z" fill="#263238"/>
<path d="M662.819 151.363C662.819 153.031 663.35 154.397 664.013 154.397C664.677 154.397 665.227 153.031 665.227 151.363C665.227 149.694 664.677 148.348 664.013 148.348C663.35 148.348 662.819 149.713 662.819 151.363Z" fill="#263238"/>
<path d="M700.838 153.467C700.838 153.467 695.756 156.008 694.504 154.112C693.253 152.216 693.86 147.134 693.234 143.323C692.608 139.511 689.441 137.634 687.545 135.074C685.649 132.514 688.816 127.489 688.816 125.593C688.816 123.697 676.775 131.282 666.061 131.282C655.348 131.282 651.46 126.845 655.272 116.7C659.083 106.555 669.228 111.011 669.228 111.011C670.261 109.322 671.788 107.991 673.602 107.197C675.417 106.404 677.431 106.186 679.373 106.574C686.37 107.826 687.621 112.908 687.621 112.908C687.621 112.908 704.118 117.989 704.118 125.593C704.118 133.197 700.838 153.467 700.838 153.467Z" fill="#263238" stroke="#263238" stroke-linecap="round" stroke-linejoin="round"/>
<path d="M696.401 157.923C696.401 157.923 695.756 145.238 702.089 147.759C708.423 150.281 704.63 164.256 697.007 164.256" fill="white"/>
<path d="M696.401 157.923C696.401 157.923 695.756 145.238 702.089 147.759C708.423 150.281 704.63 164.256 697.007 164.256" stroke="#263238" stroke-linecap="round" stroke-linejoin="round"/>
<path d="M706.526 322.477C706.526 322.477 710.926 332.299 712.518 355.281C712.746 358.41 709.788 368.554 710.015 371.968C712.291 405 715.002 446.716 716.045 471.006C717.942 515.757 698.98 602.395 698.98 602.395H685.706C685.706 602.395 683.81 480.525 683.81 469.11C683.81 457.695 676.225 380.557 676.225 380.557C676.225 380.557 674.329 461.487 674.329 485.285C674.329 509.082 669.569 602.395 669.569 602.395H650.342C650.342 602.395 636.063 377.694 636.063 366.279C636.063 354.864 635.115 323.425 635.115 323.425L706.526 322.477Z" fill="#263238" stroke="#263238" stroke-linecap="round" stroke-linejoin="round"/>
<path d="M660.335 251.956L670.442 247.746C671.247 247.382 672.142 247.267 673.013 247.416C673.884 247.566 674.69 247.973 675.327 248.586C675.964 249.198 676.403 249.988 676.587 250.852C676.77 251.717 676.691 252.616 676.358 253.435C676.022 254.181 675.508 254.832 674.86 255.331C674.18 255.818 673.653 256.489 673.341 257.265C673.028 258.04 672.943 258.889 673.096 259.711C673.608 262.125 673.412 264.635 672.53 266.94C671.649 269.244 670.12 271.245 668.128 272.7C667.213 273.321 666.209 273.8 665.151 274.123C661.11 275.309 657.207 276.924 653.508 278.939L648.711 265.173L660.335 251.956Z" fill="white" stroke="#263238" stroke-linecap="round" stroke-linejoin="round"/>
<path d="M648.711 265.097C648.711 265.097 616.305 295.341 614.864 298.963C613.423 302.585 611.242 311.99 622.107 317.773C632.972 323.557 653.508 278.863 653.508 278.863L648.711 265.097Z" fill="white" stroke="#263238" stroke-linecap="round" stroke-linejoin="round"/>
<path d="M669.399 602.394L690.731 620.92C691.161 621.295 691.465 621.793 691.6 622.347C691.736 622.901 691.698 623.483 691.491 624.014C691.283 624.546 690.917 625 690.441 625.315C689.966 625.63 689.405 625.79 688.835 625.774H653.565C652.845 625.777 652.133 625.626 651.475 625.333C650.818 625.039 650.23 624.609 649.752 624.071C649.273 623.533 648.914 622.9 648.699 622.213C648.483 621.526 648.416 620.801 648.502 620.086L650.399 602.318L669.399 602.394Z" fill="white" stroke="#263238" stroke-linecap="round" stroke-linejoin="round"/>
<path d="M648.502 620.161L688.19 619.744" stroke="#263238" stroke-linecap="round" stroke-linejoin="round"/>
<path d="M495.194 242.626C493.848 243.063 483.627 246.627 472.061 236.843C460.494 227.059 465.386 202.142 484.955 199.924C504.524 197.705 507.709 209.708 511.653 213.197C515.598 216.686 520.092 208.305 536.114 209.196C552.137 210.088 566.757 230.623 565.013 248.41C563.268 266.196 553.446 267.087 552.118 281.328C550.791 295.568 566.795 301.788 577.471 309.335C588.146 316.882 598.822 336.925 591.711 352.493C584.6 368.06 567.25 379.172 573.034 389.393C578.817 399.613 589.038 422.766 573.47 432.55C557.902 442.335 545.899 440.552 541.443 429.877C536.987 419.201 534.768 326.249 531.658 320.466C528.549 314.682 518.385 309.79 516.982 296.441C515.579 283.091 518.309 277.308 514.763 271.98C511.217 266.651 501.869 255.521 500.978 250.192C500.399 247.163 500.867 244.027 502.305 241.299L495.194 242.626Z" fill="#263238" stroke="#263238" stroke-linecap="round" stroke-linejoin="round"/>
<path d="M477.901 215.947C480.536 210.733 485.258 206.125 493.582 207.983C512.146 212.098 506.211 225.675 520.129 231.989C534.047 238.304 551.72 232.634 559.95 242.115C568.179 251.596 561.846 257.285 561.846 257.285" stroke="white" stroke-linecap="round" stroke-linejoin="round"/>
<path d="M474.62 227.57C474.858 225.289 475.309 223.036 475.967 220.839" stroke="white" stroke-linecap="round" stroke-linejoin="round"/>
<path d="M515.067 245.907C515.067 245.907 516.337 254.744 531.507 256.014C546.676 257.284 551.72 269.287 547.302 277.498" stroke="white" stroke-linecap="round" stroke-linejoin="round"/>
<path d="M556.385 407.9C557.554 410.25 559.194 412.334 561.201 414.025" stroke="white" stroke-linecap="round" stroke-linejoin="round"/>
<path d="M543.51 266.766C543.51 266.766 539.091 271.81 535.925 289.52C533.043 305.676 547.302 326.8 561.201 337.551C575.1 348.302 572.578 360.305 562.472 371.683C559.318 375.444 556.937 379.79 555.463 384.472C553.989 389.153 553.452 394.08 553.882 398.969" stroke="white" stroke-linecap="round" stroke-linejoin="round"/>
<path d="M546.032 286.979C546.032 286.979 543.756 298.242 548.573 307.837C558.054 326.799 590.289 328.695 589.019 346.406" stroke="white" stroke-linecap="round" stroke-linejoin="round"/>
<path d="M504.524 292.44C505.786 298.76 506.678 305.149 507.197 311.573C507.652 319.575 507.652 324.846 507.652 324.846L530.407 315.953C527.468 308.285 525.042 300.43 523.144 292.44C522.294 288.629 521.705 284.764 521.381 280.873L504.524 292.44Z" fill="white" stroke="#263238" stroke-linecap="round" stroke-linejoin="round"/>
<path d="M537.006 262.196C534.332 256.412 527.657 255.976 524.547 260.413C523.087 262.409 521.751 264.492 520.546 266.652C520.546 266.652 508.525 254.63 510.762 248.41C513 242.191 519.655 237.28 514.308 235.516C508.961 233.753 489.013 239.517 489.013 239.517C489.013 239.517 487.894 248.865 486.889 259.181C486.889 259.181 485.732 263.789 482.376 265.135C479.02 266.481 480.006 269.193 482.035 269.515C483.191 269.724 484.689 270.122 485.941 270.444C485.656 274.464 485.467 278.124 485.467 280.873C485.467 292.876 490.795 299.551 495.251 299.551C499.707 299.551 519.769 293.199 522.424 288.762C524.44 284.973 526.066 280.989 527.278 276.872C527.278 276.872 539.66 267.979 537.006 262.196Z" fill="white" stroke="#263238" stroke-linecap="round" stroke-linejoin="round"/>
<path d="M488.046 276.607C489.142 276.956 490.32 276.947 491.411 276.583C492.501 276.218 493.448 275.516 494.114 274.578" stroke="#263238" stroke-linecap="round" stroke-linejoin="round"/>
<path d="M493.772 259.616C493.772 261.209 493.146 262.461 492.483 262.442C491.819 262.423 491.364 261.114 491.421 259.54C491.478 257.967 492.046 256.696 492.691 256.715C493.336 256.734 493.829 258.042 493.772 259.616Z" fill="#263238"/>
<path d="M490.056 253.682C490.056 253.682 493.09 248.619 496.124 255.028" stroke="#263238" stroke-linecap="round" stroke-linejoin="round"/>
<path d="M527.221 309.335C527.221 309.335 503.196 324.012 499.195 332.089C495.194 340.167 481.409 362.77 480.063 370.336C478.716 377.902 498.304 399.689 500.921 401.908C503.538 404.126 502.248 419.258 501.357 426.824C500.466 434.39 500.03 442.392 488.463 449.939C476.896 457.486 480.518 494.007 498.304 499.695C516.091 505.384 546.79 500.15 548.117 463.667C549.445 427.184 545.899 360.04 541.443 335.142C536.987 310.245 529.44 304.898 527.221 309.335Z" fill="#62D0FF" stroke="#263238" stroke-linecap="round" stroke-linejoin="round"/>
<path d="M414.681 433.878C414.681 433.878 395.568 424.53 391.567 440.553C387.566 456.575 358.648 553.529 358.648 553.529C358.648 553.529 338.188 550.855 328.84 547.29C319.492 543.725 315.567 544.616 320.402 551.291C325.237 557.966 339.971 567.75 350.191 573.533C360.412 579.317 360.867 581.118 362.194 579.317C363.522 577.515 371.979 546.854 383.053 527.285C394.126 507.716 403.911 488.583 411.496 476.087C416.211 467.995 419.381 459.096 420.844 449.844" fill="white"/>
<path d="M414.681 433.878C414.681 433.878 395.568 424.53 391.567 440.553C387.566 456.575 358.648 553.528 358.648 553.528C358.648 553.528 338.188 550.855 328.84 547.29C319.492 543.725 315.567 544.616 320.402 551.291C325.237 557.966 339.971 567.75 350.191 573.533C360.412 579.317 360.867 581.118 362.194 579.317C363.522 577.515 371.979 546.854 383.053 527.285C394.126 507.716 403.911 488.583 411.496 476.087C416.211 467.995 419.381 459.096 420.844 449.844" stroke="#263238" stroke-linecap="round" stroke-linejoin="round"/>
<path d="M436.488 457.979C436.488 457.979 410.244 456.197 404.461 463.307C398.677 470.418 422.247 566.499 424.466 581.176C426.684 595.852 428.031 608.31 426.248 610.529C424.466 612.747 408.462 631.387 401.787 635.881C395.112 640.375 404.006 642.101 411.572 639.446C419.137 636.791 435.141 627.879 441.38 626.173C447.618 624.466 450.709 622.608 449.818 616.824C448.927 611.041 442.707 615.497 437.36 575.468C435.141 558.705 436.488 517.653 435.596 500.738C434.705 483.824 434.25 474.95 434.25 474.95L451.6 471.385L436.488 457.979Z" fill="white" stroke="#263238" stroke-linecap="round" stroke-linejoin="round"/>
<path d="M402.223 449.446C402.223 449.446 437.36 488.584 438.706 485.91C440.052 483.237 440.034 439.662 440.034 439.662C440.034 439.662 405.579 429.536 401.92 431.736" fill="white"/>
<path d="M402.223 449.446C402.223 449.446 437.36 488.584 438.706 485.91C440.052 483.237 440.034 439.662 440.034 439.662C440.034 439.662 405.579 429.536 401.92 431.736" stroke="#263238" stroke-linecap="round" stroke-linejoin="round"/>
<path d="M532.114 454.774L431.141 435.66L428.031 485.91C428.031 485.91 484.064 509.479 508.525 507.716C532.986 505.953 545.008 491.257 546.335 474.798" fill="#62D0FF"/>
<path d="M532.114 454.774L431.141 435.66L428.031 485.91C428.031 485.91 484.064 509.479 508.525 507.716C532.986 505.953 545.008 491.257 546.335 474.798" stroke="#263238" stroke-linecap="round" stroke-linejoin="round"/>
<path d="M424.087 613.013C419.099 618.834 407.286 632.145 401.787 635.767C395.112 640.204 404.006 641.987 411.572 639.332C419.137 636.677 435.141 627.765 441.38 626.058C447.618 624.352 450.709 622.494 449.818 616.71C449.458 614.359 448.187 613.714 446.424 611.021L430.23 619.782L424.087 613.013Z" fill="#62D0FF" stroke="#263238" stroke-linecap="round" stroke-linejoin="round"/>
<path d="M352.865 560.185L357.53 553.378C353.187 552.771 336.899 550.363 328.84 547.291C319.511 543.745 315.567 544.617 320.402 551.292C325.237 557.966 339.971 567.751 350.191 573.534C360.412 579.318 360.867 581.119 362.194 579.318C362.725 578.616 364.356 573.439 366.821 566.215L352.865 560.185Z" fill="#62D0FF" stroke="#263238" stroke-linecap="round" stroke-linejoin="round"/>
<path d="M534.768 346.709C534.768 346.709 535.223 329.795 521.874 331.539C508.524 333.284 510.307 357.347 510.307 357.347L508.752 422.842L459.166 440.514L482.736 444.951C482.736 444.951 526.766 444.515 529.44 440.95C532.113 437.386 534.768 346.709 534.768 346.709Z" fill="white" stroke="#263238" stroke-linecap="round" stroke-linejoin="round"/>
<path d="M474.621 434.884C474.621 434.884 461.973 429.84 458.18 431.736C454.388 433.632 449.97 440.572 450.596 443.113C451.221 445.654 474.621 434.884 474.621 434.884Z" fill="white" stroke="#263238" stroke-linecap="round" stroke-linejoin="round"/>
<path d="M450.596 443.113L462.599 431.735L469.558 433.632L459.223 441.653" stroke="#263238" stroke-linecap="round" stroke-linejoin="round"/>
<path d="M557.997 502.369H460.077C456.464 502.369 453.535 505.298 453.535 508.911V633.15C453.535 636.763 456.464 639.692 460.077 639.692H557.997C561.61 639.692 564.539 636.763 564.539 633.15V508.911C564.539 505.298 561.61 502.369 557.997 502.369Z" fill="white" stroke="#263238" stroke-linecap="round" stroke-linejoin="round"/>
<path d="M201.529 502.37H103.609C99.9958 502.37 97.0669 505.299 97.0669 508.912V633.151C97.0669 636.764 99.9958 639.693 103.609 639.693H201.529C205.142 639.693 208.071 636.764 208.071 633.151V508.912C208.071 505.299 205.142 502.37 201.529 502.37Z" fill="white" stroke="#263238" stroke-linecap="round" stroke-linejoin="round"/>
<path d="M312.4 358.505C316.767 354.933 321.373 351.664 326.186 348.721C332.424 345.175 362.669 342.501 362.669 342.501L363.996 359.396C363.996 359.396 343.972 364.288 342.645 364.743C341.317 365.199 336.425 369.181 329.75 370.072C325.024 370.61 320.261 370.762 315.51 370.527L312.4 358.505Z" fill="white" stroke="#263238" stroke-linecap="round" stroke-linejoin="round"/>
<path d="M331.078 302.036L344.427 376.747L404.916 363.853L390.239 288.251L331.078 302.036Z" fill="white" stroke="#263238" stroke-linecap="round" stroke-linejoin="round"/>
<path d="M185.202 311.82L231.906 375.855L316.458 356.286L318.24 370.527L233.726 407.882L163.017 344.719C163.017 344.719 148.283 316.257 185.202 311.82Z" fill="#62D0FF" stroke="#263238" stroke-linecap="round" stroke-linejoin="round"/>
<path d="M184.747 250.876C182.948 256.814 180.718 262.613 178.073 268.226C176.642 270.631 175.455 273.172 174.527 275.811L194.096 292.706C194.096 292.706 199.424 284.249 204.316 280.703C206.997 278.712 209.824 276.924 212.773 275.356C207.608 269.054 204.09 261.567 202.534 253.569C199.424 239.328 199.424 235.782 199.424 235.782L184.747 250.876Z" fill="white" stroke="#263238" stroke-linecap="round" stroke-linejoin="round"/>
<path d="M246.128 218.849C246.128 218.849 255.021 221.087 255.476 213.16C255.931 205.234 244.402 195.734 223.544 193.061C202.685 190.387 187.061 201.518 183.951 212.193C180.841 222.869 183.06 234.417 183.06 241.092C183.06 247.766 180.405 250.44 183.951 254.365C187.497 258.29 200.865 256.147 200.865 256.147C200.865 256.147 215.087 254.365 216.035 250.459C216.983 246.553 214.707 241.111 218.708 238.001C222.709 234.891 229.384 231.781 228.929 226.889C228.828 224.786 228.529 222.697 228.038 220.65C228.038 220.65 237.386 224.215 240.496 222.869C242.578 221.843 244.48 220.485 246.128 218.849Z" fill="#263238" stroke="#263238" stroke-linecap="round" stroke-linejoin="round"/>
<path d="M218.102 214.849C218.102 214.849 196.618 212.459 184.368 228.824" stroke="white" stroke-linecap="round" stroke-linejoin="round"/>
<path d="M215.03 221.144C215.03 221.144 196.617 224.215 185.904 238.02" stroke="white" stroke-linecap="round" stroke-linejoin="round"/>
<path d="M241.425 245.15C244.288 232.408 246.128 218.85 246.128 218.85C246.128 218.85 223.373 213.958 218.102 214.849C212.83 215.74 216.774 223.742 217.666 229.525C218.557 235.309 209.664 237.527 207.426 239.31C205.189 241.092 207.881 245.548 207.881 248.203C207.881 250.858 204.316 251.768 201.207 251.332C198.097 250.896 200.315 238.874 195.878 237.091C191.441 235.309 185.639 241.092 186.094 246.876C186.549 252.659 194.532 254.878 194.532 254.878C194.532 254.878 194.987 271.337 200.315 274.902C205.644 278.466 221.667 285.122 225.668 284.231C229.669 283.34 231.356 274.01 236.798 261.116C237.178 260.187 237.557 259.22 237.917 258.082C242.354 258.386 245.312 254.29 243.909 253C242.942 252.033 241.975 247.9 241.425 245.15Z" fill="white" stroke="#263238" stroke-linecap="round" stroke-linejoin="round"/>
<path d="M237.291 239.404C237.291 239.404 234.959 233.299 228.701 238.267" stroke="#263238" stroke-linecap="round" stroke-linejoin="round"/>
<path d="M233.025 246.325C232.683 247.918 231.868 249.113 231.129 248.98C230.389 248.847 230.199 247.425 230.522 245.813C230.844 244.201 231.678 243.007 232.418 243.158C233.158 243.31 233.328 244.713 233.025 246.325Z" fill="#263238"/>
<path d="M224.056 261.95C224.056 261.95 223.942 267.373 225.952 268.378C227.962 269.383 232.304 264.339 232.304 264.339C232.304 264.339 226.521 263.922 224.056 261.95Z" fill="#263238"/>
<path d="M173.503 442.811C173.503 442.811 263.345 449.485 272.693 453.941C282.042 458.397 285.132 466.38 285.967 478.402C286.801 490.424 294.86 610.492 294.86 610.492L282.421 614.948L248.194 484.698L159.224 492.283C159.224 492.283 147.676 490.5 144.548 474.932C143.607 470.479 143.721 465.867 144.88 461.465C146.039 457.063 148.211 452.993 151.222 449.58" fill="#263238"/>
<path d="M173.503 442.811C173.503 442.811 263.345 449.485 272.693 453.941C282.042 458.397 285.132 466.38 285.967 478.402C286.801 490.424 294.86 610.492 294.86 610.492L282.421 614.948L248.194 484.698L159.224 492.283C159.224 492.283 147.676 490.5 144.548 474.932C143.607 470.479 143.721 465.867 144.88 461.465C146.039 457.063 148.211 452.993 151.222 449.58" stroke="#263238" stroke-linecap="round" stroke-linejoin="round"/>
<path d="M103.798 431.433C103.798 431.433 102.471 482.63 107.799 493.268C113.128 503.906 161.614 503.052 171.417 497.705C181.22 492.358 187.421 471.025 184.311 453.239C181.202 435.453 185.203 432.381 178.073 430.105C170.943 427.83 103.798 431.433 103.798 431.433Z" fill="#263238" stroke="#263238" stroke-linecap="round" stroke-linejoin="round"/>
<path d="M167.397 273.118C169.066 274.218 194.532 301.561 196.314 308.255C198.097 314.949 197.205 350.958 192.749 366.525C188.293 382.093 180.746 401.207 180.746 407.882C180.746 414.556 186.435 427.906 182.965 432.798C179.495 437.69 152.284 441.236 134.043 440.383C115.801 439.529 104.689 435.054 103.703 431.489C102.717 427.925 109.051 360.325 116.598 336.319C124.144 312.313 135.294 295.835 144.187 288.269C153.081 280.703 164.761 271.336 167.397 273.118Z" fill="#62D0FF" stroke="#263238" stroke-linecap="round" stroke-linejoin="round"/>
<path d="M136.717 353.688C136.717 353.688 143.96 355.869 168.63 337.741" stroke="#263238" stroke-linecap="round" stroke-linejoin="round"/>
<path d="M124.391 370.318C124.391 370.318 152.664 369.598 170.81 340.586" stroke="#263238" stroke-linecap="round" stroke-linejoin="round"/>
<path d="M173.237 260.319L201.661 291.796L196.314 308.255L164.78 271.886L173.237 260.319Z" fill="#62D0FF" stroke="#263238" stroke-linecap="round" stroke-linejoin="round"/>
<path d="M157.859 455.496C157.859 455.496 235.604 457.032 260.861 462.815C286.119 468.599 285.512 476.411 276.031 500.474C271.745 511.396 194.949 610.227 194.949 610.227L183.837 604.443L233.651 502.143C233.651 502.143 142.026 508.817 122.457 503.034C102.888 497.251 104.216 481.247 106.434 471.898" fill="#263238"/>
<path d="M157.859 455.496C157.859 455.496 235.604 457.032 260.861 462.815C286.119 468.599 285.512 476.411 276.031 500.474C271.745 511.396 194.949 610.227 194.949 610.227L183.837 604.443L233.651 502.143C233.651 502.143 142.026 508.817 122.457 503.034C102.888 497.251 104.216 481.247 106.434 471.898" stroke="#263238" stroke-linecap="round" stroke-linejoin="round"/>
<path d="M270.74 508.514C267.573 513.937 265.052 517.729 265.052 517.729" stroke="white" stroke-linecap="round" stroke-linejoin="round"/>
<path d="M162.96 456.463C162.96 456.463 260.141 462.474 271.157 465.47C282.174 468.466 285.189 476.487 280.183 489.514C278.258 494.349 276.022 499.055 273.49 503.603" stroke="white" stroke-linecap="round" stroke-linejoin="round"/>
<path d="M144.927 456.463C144.927 456.463 125.965 470.476 122.874 483.503" stroke="white" stroke-linecap="round" stroke-linejoin="round"/>
<path d="M123.879 459.459C123.879 459.459 110.852 477.492 112.862 486.518" stroke="white" stroke-linecap="round" stroke-linejoin="round"/>
<path d="M294.917 610.568C294.917 610.568 337.62 602.111 337.62 605.239C337.62 608.368 319.378 620.409 309.176 625.699C298.975 630.99 293.172 637.247 289.608 635.92C286.043 634.593 282.497 615.062 282.497 615.062L294.917 610.568Z" fill="#62D0FF" stroke="#263238" stroke-linecap="round" stroke-linejoin="round"/>
<path d="M194.949 610.227C194.949 610.227 203.406 622.666 206.952 626.686C210.498 630.706 226.085 641.362 221.629 642.254C217.173 643.145 196.731 639.58 186.056 636.015C175.38 632.45 169.142 627.577 168.269 624.903C167.397 622.23 183.837 604.443 183.837 604.443" fill="#62D0FF"/>
<path d="M194.949 610.227C194.949 610.227 203.406 622.666 206.952 626.686C210.498 630.706 226.085 641.362 221.629 642.254C217.173 643.145 196.731 639.58 186.056 636.015C175.38 632.45 169.142 627.577 168.269 624.903C167.397 622.23 183.837 604.443 183.837 604.443" stroke="#263238" stroke-linecap="round" stroke-linejoin="round"/>
<path d="M234.561 370.963C234.561 370.963 179.419 302.927 171.853 299.362C164.287 295.797 152.721 307.364 149.611 318.931C146.501 330.498 152.721 341.686 160.286 346.957C163.643 349.308 231.451 404.772 235.016 405.208C238.581 405.645 317.728 330.043 317.728 330.043L309.726 322.458L234.561 370.963Z" fill="#62D0FF" stroke="#263238" stroke-linecap="round" stroke-linejoin="round"/>
<path d="M309.727 322.496C309.727 322.496 312.836 300.689 314.183 299.741C315.529 298.793 324.403 289.521 325.75 290.848C327.096 292.175 327.968 293.958 326.186 295.74C324.142 298.536 322.358 301.513 320.857 304.634C320.857 304.634 333.296 294.413 335.079 291.739C336.861 289.066 339.971 285.065 341.317 287.302C342.664 289.54 335.534 306.416 333.296 311.763C331.059 317.111 317.729 329.986 317.729 329.986L309.727 322.496Z" fill="white" stroke="#263238" stroke-linecap="round" stroke-linejoin="round"/>
<path d="M316.458 356.286C316.458 356.286 328.916 341.609 330.243 340.282C331.571 338.955 349.812 338.063 349.812 338.063C349.812 338.063 354.268 338.063 352.05 340.718C349.831 343.373 337.373 345.61 337.373 345.61C337.373 345.61 333.353 355.395 330.243 357.177C328.238 358.405 325.919 359.025 323.569 358.96" fill="white"/>
<path d="M316.458 356.286C316.458 356.286 328.916 341.609 330.243 340.282C331.571 338.955 349.812 338.063 349.812 338.063C349.812 338.063 354.268 338.063 352.05 340.718C349.831 343.373 337.373 345.61 337.373 345.61C337.373 345.61 333.353 355.395 330.243 357.177C328.238 358.405 325.919 359.025 323.569 358.96" stroke="#263238" stroke-linecap="round" stroke-linejoin="round"/>
</svg>
