<svg width="1920" height="315" viewBox="0 0 1920 315" fill="none" xmlns="http://www.w3.org/2000/svg">
<path d="M1571.78 157.644V157.306C1571.78 131.247 1591.51 109.774 1619.19 109.774C1632.86 109.774 1642.47 113.525 1650.06 119.995C1651.75 121.364 1654.11 124.421 1654.11 128.865C1654.11 135.336 1648.87 140.455 1642.47 140.455C1639.09 140.455 1636.57 139.086 1635.04 137.895C1630.48 134.322 1625.75 132.101 1619.01 132.101C1606.18 132.101 1597.07 143.512 1597.07 156.969V157.306C1597.07 171.278 1606.02 182.53 1620.01 182.53C1626.76 182.53 1632 180.148 1636.89 176.219C1638.24 175.188 1640.78 173.838 1643.8 173.838C1649.88 173.838 1654.59 178.779 1654.59 184.912C1654.59 188.325 1653.08 191.044 1650.89 193.088C1643.3 200.074 1633.67 204.838 1618.83 204.838C1591.66 204.838 1571.76 183.703 1571.76 157.644H1571.78Z" fill="#21396F"/>
<path d="M1007.95 124.106C1007.95 117.102 1006.6 111.432 1013.69 111.432C1020.78 111.432 1033.61 117.102 1033.61 124.106V190.106C1033.61 197.11 1034.96 202.78 1027.87 202.78C1020.78 202.78 1007.95 197.11 1007.95 190.106V124.106Z" fill="#21396F"/>
<path d="M0 92.5343C0 85.0152 6.17137 78.9004 13.8001 78.9004H58.2232C72.5451 78.9004 83.8443 82.7932 91.0053 89.8679C96.7448 95.5383 99.6056 102.435 99.6056 110.932V111.287C99.6056 125.277 92.0848 133.063 83.1246 138.004C97.6264 143.497 106.587 151.816 106.587 168.436V168.791C106.587 191.437 87.9646 202.778 59.6446 202.778H6.29732C2.8248 202.778 0 199.988 0 196.557V92.5343ZM52.3037 128.992C64.4846 128.992 72.1853 125.099 72.1853 115.891V115.536C72.1853 107.395 65.744 102.791 54.085 102.791H26.8626V128.992H52.3037ZM59.6446 178.906C71.8254 178.906 79.1663 174.657 79.1663 165.45V165.094C79.1663 156.775 72.887 151.638 58.745 151.638H26.8626V178.888H59.6446V178.906Z" fill="#21396F"/>
<path d="M120.512 91.0954C120.512 83.7541 126.755 79.2568 134.852 79.2568C142.948 79.2568 149.192 83.7541 149.192 91.0954V91.4331C149.192 98.7744 142.948 103.432 134.852 103.432C126.755 103.432 120.512 98.7744 120.512 91.4331V91.0954ZM122.023 124.105C122.023 117.101 120.674 111.431 127.763 111.431C134.852 111.431 147.68 117.101 147.68 124.105V190.105C147.68 197.109 149.03 202.779 141.941 202.779C134.852 202.779 122.023 197.109 122.023 190.105V124.105Z" fill="#21396F"/>
<path d="M501.68 91.0954C501.68 83.7541 507.923 79.2568 516.02 79.2568C524.116 79.2568 530.36 83.7541 530.36 91.0954V91.4331C530.36 98.7744 524.116 103.432 516.02 103.432C507.923 103.432 501.68 98.7744 501.68 91.4331V91.0954ZM503.191 124.105C503.191 117.101 501.842 111.431 508.931 111.431C516.02 111.431 528.848 117.101 528.848 124.105V190.105C528.848 197.109 530.198 202.779 523.109 202.779C516.02 202.779 503.191 197.109 503.191 190.105V124.105Z" fill="#21396F"/>
<path d="M629.173 91.0954C629.173 83.7541 635.417 79.2568 643.513 79.2568C651.61 79.2568 657.853 83.7541 657.853 91.0954V91.4331C657.853 98.7744 651.61 103.432 643.513 103.432C635.417 103.432 629.173 98.7744 629.173 91.4331V91.0954ZM630.685 124.105C630.685 117.101 629.335 111.431 636.424 111.431C643.513 111.431 656.342 117.101 656.342 124.105V190.105C656.342 197.109 657.691 202.779 650.602 202.779C643.513 202.779 630.685 197.109 630.685 190.105V124.105Z" fill="#21396F"/>
<path d="M381.168 92.5343C381.168 85.0152 387.34 78.9004 394.968 78.9004H439.392C453.713 78.9004 465.013 82.7932 472.174 89.8679C477.913 95.5383 480.774 102.435 480.774 110.932V111.287C480.774 125.277 473.253 133.063 464.293 138.004C478.795 143.497 487.755 151.816 487.755 168.436V168.791C487.755 191.437 469.133 202.778 440.813 202.778H387.466C383.993 202.778 381.168 199.988 381.168 196.557V92.5343ZM433.472 128.992C445.653 128.992 453.354 125.099 453.354 115.891V115.536C453.354 107.395 446.912 102.791 435.253 102.791H408.031V128.992H433.472ZM440.813 178.906C452.994 178.906 460.335 174.657 460.335 165.45V165.094C460.335 156.775 454.055 151.638 439.913 151.638H408.031V178.888H440.813V178.906Z" fill="#21396F"/>
<path d="M161.932 191.987V191.471C161.932 186.458 163.677 183.152 167.887 178.655L211.518 131.052H174.364C168.409 131.052 163.497 126.377 163.497 120.493C163.497 114.61 168.409 109.757 174.364 109.757H232.713C240.252 109.757 245.686 114.076 245.686 120.316V120.831C245.686 125.844 243.941 129.132 239.73 133.647L195.919 181.25H234.818C240.774 181.25 245.686 186.103 245.686 191.987C245.686 197.87 240.774 202.545 234.818 202.545H174.904C167.365 202.545 161.932 198.208 161.932 191.987Z" fill="#21396F"/>
<path d="M298.547 202.776C271.379 202.776 251.3 183.934 251.3 156.595V156.258C251.3 130.75 269.688 109.757 296.011 109.757C326.22 109.757 339.534 134.252 339.534 152.756C339.534 160.097 334.298 164.932 327.551 164.932H276.759C279.296 176.433 287.392 182.441 298.853 182.441C305.942 182.441 311.844 180.273 317.08 176.433C318.933 175.1 320.624 174.424 323.323 174.424C329.062 174.424 333.273 178.762 333.273 184.432C333.273 187.756 331.761 190.262 329.89 191.933C321.955 198.599 311.664 202.776 298.511 202.776H298.547ZM315.082 149.094C313.571 137.753 306.824 130.092 296.011 130.092C285.197 130.092 278.468 137.593 276.435 149.094H315.064H315.082Z" fill="#21396F"/>
<path d="M553.176 123.109C553.176 115.998 551.34 110.275 558.573 110.452C565.626 110.63 578.815 116.727 578.815 123.695V126.806C578.815 126.806 578.905 126.895 578.941 126.824C582.665 118.256 588.693 110.435 596.195 110.435C604.13 110.435 608.682 115.607 608.682 122.771C608.682 129.437 604.292 133.436 599.056 134.609C586.066 137.613 578.815 147.443 578.815 165.45V188.594C578.815 195.526 573.399 201.588 566.382 201.783C559.113 201.996 553.176 196.255 553.176 189.127V123.126V123.109Z" fill="#21396F"/>
<path d="M703.105 91.3393C703.105 84.3002 708.647 78.7009 715.718 78.5054C723.058 78.3098 729.086 84.6913 729.086 91.9437V176.626C729.086 178.173 730.363 179.435 731.929 179.435H776.604C783.279 179.435 789.144 184.821 788.982 191.416C788.82 197.779 783.657 202.774 777.179 202.774H708.611C705.57 202.774 703.105 200.339 703.105 197.335V91.3393Z" fill="#21396F"/>
<path d="M907.751 191.987V191.471C907.751 186.458 909.442 183.152 913.491 178.655L955.503 131.052H919.734C913.994 131.052 909.28 126.377 909.28 120.493C909.28 114.61 913.994 109.757 919.734 109.757H975.924C983.175 109.757 988.411 114.076 988.411 120.316V120.831C988.411 125.844 986.719 129.132 982.671 133.647L940.497 181.25H977.957C983.697 181.25 988.411 186.103 988.411 191.987C988.411 197.87 983.697 202.545 977.957 202.545H920.256C913.005 202.545 907.769 198.208 907.769 191.987H907.751Z" fill="#21396F"/>
<path d="M885.763 110.432C883.55 110.432 881.499 111.214 879.772 112.548C876.713 114.93 872.665 115.694 869.102 114.13C862.769 111.321 855.59 109.757 847.853 109.757C819.677 109.757 798.752 130.59 798.752 156.258V156.595C798.752 182.263 819.497 202.776 847.512 202.776C855.626 202.776 863.147 201.034 869.732 197.959C872.791 196.537 876.299 197.266 878.656 199.666C880.563 201.603 883.028 202.776 885.745 202.776C891.755 202.776 896.613 197.053 896.613 189.978V123.248C896.613 116.174 891.755 110.45 885.745 110.45L885.763 110.432ZM871.315 156.595C871.315 169.767 862.535 180.93 847.871 180.93C833.208 180.93 824.086 169.429 824.086 156.258V155.92C824.086 142.748 832.866 131.585 847.53 131.585C862.193 131.585 871.315 143.086 871.315 156.258V156.595Z" fill="#21396F"/>
<path d="M1057.72 123.248C1057.72 116.174 1056.37 110.45 1063.46 110.45C1070.54 110.45 1083.37 116.174 1083.37 123.248V124.262C1089.27 116.671 1097.05 109.774 1110.04 109.774C1118.13 109.774 1124.88 112.227 1129.85 116.707C1133.39 119.906 1138.92 120.102 1142.71 117.205C1149.08 112.352 1156.4 109.774 1165.2 109.774C1184.27 109.774 1195.74 121.24 1195.74 142.961V189.978C1195.74 197.052 1190 202.776 1182.91 202.776C1175.82 202.776 1170.08 197.052 1170.08 189.978V151.387C1170.08 139.246 1164.68 133.025 1155.05 133.025C1145.43 133.025 1139.53 139.264 1139.53 151.387V189.978C1139.53 197.052 1133.79 202.776 1126.7 202.776C1119.61 202.776 1113.87 197.052 1113.87 189.978V151.387C1113.87 139.246 1108.47 133.025 1098.85 133.025C1089.22 133.025 1083.32 139.264 1083.32 151.387V189.978C1083.32 197.052 1077.58 202.776 1070.49 202.776C1063.4 202.776 1057.66 197.052 1057.66 189.978V123.248H1057.72Z" fill="#21396F"/>
<path d="M1781.98 123.248C1781.98 116.174 1780.63 110.45 1787.72 110.45C1794.81 110.45 1807.64 116.174 1807.64 123.248V124.262C1813.54 116.671 1821.31 109.774 1834.3 109.774C1842.4 109.774 1849.15 112.227 1854.11 116.707C1857.66 119.906 1863.18 120.102 1866.98 117.205C1873.35 112.352 1880.67 109.774 1889.47 109.774C1908.54 109.774 1920 121.24 1920 142.961V189.978C1920 197.052 1914.26 202.776 1907.17 202.776C1900.08 202.776 1894.34 197.052 1894.34 189.978V151.387C1894.34 139.246 1888.95 133.025 1879.32 133.025C1869.69 133.025 1863.79 139.264 1863.79 151.387V189.978C1863.79 197.052 1858.05 202.776 1850.96 202.776C1843.87 202.776 1838.13 197.052 1838.13 189.978V151.387C1838.13 139.246 1832.74 133.025 1823.11 133.025C1813.49 133.025 1807.58 139.264 1807.58 151.387V189.978C1807.58 197.052 1801.84 202.776 1794.76 202.776C1787.67 202.776 1781.93 197.052 1781.93 189.978V123.248H1781.98Z" fill="#21396F"/>
<path d="M1669.37 156.613V156.275C1669.37 130.607 1690.29 109.774 1718.47 109.774C1746.64 109.774 1767.23 130.27 1767.23 155.955V156.293C1767.23 181.961 1746.3 202.794 1718.13 202.794C1689.95 202.794 1669.37 182.281 1669.37 156.613ZM1741.91 156.613V156.275C1741.91 143.104 1732.29 131.603 1718.13 131.603C1703.97 131.603 1694.68 142.766 1694.68 155.938V156.275C1694.68 169.447 1704.31 180.948 1718.47 180.948C1732.63 180.948 1741.91 169.785 1741.91 156.613Z" fill="#21396F"/>
<path d="M1429.65 41.4704C1429.65 64.3831 1410.85 86.407 1387.68 86.407C1364.5 86.407 1345.7 64.3831 1345.7 41.4704C1345.7 18.5577 1364.5 0 1387.68 0C1410.85 0 1429.65 18.5755 1429.65 41.4704Z" fill="#21396F"/>
<path d="M1459.02 25.9165L1455.89 24.1922C1453.26 22.7524 1450.04 24.6188 1450.04 27.5874V32.7067C1450.04 39.5859 1448.69 46.4117 1446.08 52.7931L1443.65 58.7124L1447.7 61.4143C1475.84 80.1319 1492.63 111.986 1492.63 146.613V147.395C1492.63 205.414 1446.35 250.884 1387.26 250.884C1328.18 250.884 1282.67 206.729 1282.67 148.177V147.395C1282.67 112.768 1299.53 80.7541 1327.78 61.7875L1331.83 59.0679L1329.96 54.5884C1326.92 47.2827 1325.33 39.5503 1325.28 31.5869V28.0495C1325.23 25.081 1321.99 23.2323 1319.36 24.7077L1316.25 26.4675C1272.4 51.2111 1246.22 96.4321 1246.22 147.412V148.372C1246.22 173.862 1252.84 198.268 1265.46 219.528C1266.86 221.892 1266.54 224.878 1264.57 226.816L1209.32 281.405C1205.6 285.084 1203.54 289.972 1203.54 295.181C1203.54 300.389 1205.6 305.277 1209.32 308.957C1213.17 312.761 1218.21 314.645 1223.26 314.645C1228.32 314.645 1233.36 312.743 1237.21 308.957L1289.82 256.981C1291.98 254.848 1295.41 254.635 1297.81 256.537C1322.56 276.143 1353.89 286.844 1387.19 286.844C1466.75 286.844 1529.06 225.607 1529.06 147.412V146.453C1529.06 95.3656 1502.86 50.3223 1459 25.9342L1459.02 25.9165Z" fill="#0794D0"/>
<path d="M1423.95 95.725C1421 93.7874 1417.11 93.983 1414.49 96.3294C1408.8 101.431 1401.71 114.567 1393.85 116.042L1393.26 116.149C1389.57 116.86 1385.77 116.86 1382.08 116.149L1381.49 116.042C1373.63 114.585 1366.54 101.431 1360.85 96.3294C1358.3 94.0363 1354.46 93.6986 1351.59 95.5828C1331.67 108.648 1309.09 143.364 1309.93 171.947C1311.08 210.982 1348.08 213.701 1387.66 213.364C1427.24 213.684 1464.24 210.964 1465.39 171.947C1466.23 143.47 1443.8 108.826 1423.93 95.725H1423.95Z" fill="#21396F"/>
</svg>
