<svg width="24" height="24" viewBox="0 0 24 24" fill="none" xmlns="http://www.w3.org/2000/svg">
<path fill-rule="evenodd" clip-rule="evenodd" d="M6.375 2.57147C4.37132 2.57147 2.25 4.5673 2.25 7.71442C2.25 11.3997 4.62062 14.8181 7.29705 17.455C8.60299 18.7418 9.91443 19.776 10.9019 20.4895C11.3461 20.8104 11.7224 21.0647 12 21.2462C12.2776 21.0647 12.6539 20.8104 13.0981 20.4895C14.0856 19.776 15.397 18.7418 16.7029 17.455C19.3794 14.8181 21.75 11.3997 21.75 7.71442C21.75 4.5673 19.6287 2.57147 17.625 2.57147C15.5652 2.57147 13.7118 4.26146 13.0817 6.7819C12.9437 7.33388 12.5023 7.71442 12 7.71442C11.4977 7.71442 11.0563 7.33388 10.9183 6.7819C10.2882 4.26146 8.43478 2.57147 6.375 2.57147ZM12 22.7147C11.4831 23.8568 11.4828 23.8566 11.4825 23.8563L11.479 23.8542L11.471 23.8494L11.4432 23.8328C11.4197 23.8185 11.3861 23.7981 11.3432 23.7716C11.2573 23.7186 11.1338 23.6411 10.9782 23.5405C10.6671 23.339 10.2266 23.0438 9.69963 22.6631C8.64807 21.9033 7.24076 20.7947 5.82795 19.4028C3.06688 16.6824 0 12.6008 0 7.71442C0 3.14712 3.12868 0 6.375 0C8.69604 0 10.7293 1.37404 12 3.46283C13.2707 1.37404 15.3039 0 17.625 0C20.8713 0 24 3.14712 24 7.71442C24 12.6008 20.9331 16.6824 18.1721 19.4028C16.7592 20.7947 15.3519 21.9033 14.3004 22.6631C13.7734 23.0438 13.3329 23.339 13.0218 23.5405C12.8662 23.6411 12.7428 23.7186 12.6568 23.7716C12.6139 23.7981 12.5803 23.8185 12.5568 23.8328L12.529 23.8494L12.521 23.8542L12.5175 23.8563C12.5172 23.8566 12.5169 23.8568 12 22.7147ZM12 22.7147L12.5175 23.8563C12.1933 24.0479 11.8067 24.0479 11.4825 23.8563L12 22.7147Z" fill="#05648C"/>
</svg>
