<svg width="23" height="23" viewBox="0 0 23 23" xmlns="http://www.w3.org/2000/svg">
<path fill-rule="evenodd" clip-rule="evenodd" d="M11.4716 0.444336C11.7409 0.444336 11.9868 0.597236 12.106 0.838747L14.9912 6.68481L21.4428 7.62227C21.7093 7.661 21.9307 7.84768 22.0139 8.10382C22.0971 8.35996 22.0277 8.64114 21.8349 8.82913L17.1665 13.3796L18.2686 19.8051C18.3141 20.0705 18.205 20.3388 17.9871 20.4971C17.7692 20.6554 17.4803 20.6763 17.242 20.551L11.4716 17.5173L5.70115 20.551C5.46276 20.6763 5.1739 20.6554 4.95601 20.4971C4.73812 20.3388 4.629 20.0705 4.67453 19.8051L5.77658 13.3796L1.10822 8.82913C0.915365 8.64114 0.845956 8.35996 0.929182 8.10382C1.01241 7.84768 1.23383 7.661 1.50035 7.62227L7.95187 6.68481L10.8371 0.838747C10.9563 0.597236 11.2022 0.444336 11.4716 0.444336ZM11.4716 2.75062L9.05621 7.64465C8.95315 7.85348 8.75392 7.99822 8.52347 8.03171L3.12259 8.8165L7.0307 12.626C7.19746 12.7885 7.27356 13.0227 7.23419 13.2522L6.31161 18.6313L11.1423 16.0916C11.3484 15.9833 11.5947 15.9833 11.8008 16.0916L16.6315 18.6313L15.7089 13.2522C15.6695 13.0227 15.7456 12.7885 15.9124 12.626L19.8205 8.8165L14.4196 8.03171C14.1892 7.99822 13.99 7.85348 13.8869 7.64465L11.4716 2.75062Z"/>
</svg>
