<svg width="24" height="22" viewBox="0 0 24 22" fill="none" xmlns="http://www.w3.org/2000/svg">
<path fill-rule="evenodd" clip-rule="evenodd" d="M4.20133 2.09096C4.61499 1.12579 5.56402 0.5 6.6141 0.5H17.3859C18.4361 0.5 19.3849 1.1258 19.7986 2.09096L23.9091 11.6818C23.9691 11.8219 24 11.9726 24 12.125V18.875C24 20.3248 22.8248 21.5 21.375 21.5H2.625C1.17525 21.5 0 20.3248 0 18.875V12.125C0 11.9726 0.0309462 11.8219 0.0909618 11.6818L4.20133 2.09096ZM6.6141 2.75C6.46409 2.75 6.3285 2.8394 6.26941 2.97728L2.8311 11H7.125C7.4791 11 7.81254 11.1667 8.025 11.45L9.9375 14H14.0625L15.975 11.45C16.1874 11.1667 16.5208 11 16.875 11H21.1689L17.7306 2.97728C17.6715 2.8394 17.5359 2.75 17.3859 2.75H6.6141ZM21.75 13.25H17.4375L15.525 15.8C15.3126 16.0833 14.9791 16.25 14.625 16.25H9.375C9.0209 16.25 8.68746 16.0833 8.475 15.8L6.5625 13.25H2.25V18.875C2.25 19.0821 2.4179 19.25 2.625 19.25H21.375C21.5821 19.25 21.75 19.0821 21.75 18.875V13.25Z" fill="#05648C"/>
</svg>
