<svg width="38" height="39" viewBox="0 0 38 39" fill="none" xmlns="http://www.w3.org/2000/svg">
<rect y="0.781738" width="37.8006" height="37.8006" rx="9" fill="#33CCFF"/>
<path d="M28.2819 13.6975C27.6577 13.9664 27.0016 14.1536 26.3296 14.2545C26.6438 14.2006 27.106 13.6346 27.29 13.4055C27.5696 13.06 27.7826 12.6655 27.9184 12.2421C27.9184 12.2107 27.9498 12.1658 27.9184 12.1433C27.9025 12.1347 27.8848 12.1301 27.8667 12.1301C27.8487 12.1301 27.831 12.1347 27.8151 12.1433C27.0855 12.5388 26.3089 12.8406 25.5038 13.0417C25.4758 13.0503 25.4459 13.051 25.4174 13.0439C25.389 13.0368 25.363 13.0221 25.3422 13.0013C25.2796 12.9266 25.2121 12.8561 25.1403 12.7901C24.8119 12.4957 24.4394 12.2547 24.0362 12.0759C23.4921 11.8525 22.9043 11.7557 22.3173 11.7929C21.7478 11.8289 21.1917 11.9818 20.6837 12.2421C20.1835 12.5166 19.7438 12.8894 19.3912 13.3382C19.0202 13.8001 18.7524 14.3362 18.6058 14.9104C18.4848 15.4565 18.4711 16.021 18.5654 16.5724C18.5654 16.6667 18.5654 16.6802 18.4846 16.6667C15.2847 16.1951 12.6592 15.0586 10.5139 12.6195C10.4197 12.5116 10.3703 12.5116 10.294 12.6195C9.36051 14.0389 9.8138 16.2849 10.9807 17.3944C11.1378 17.5427 11.2993 17.6864 11.4699 17.8212C10.9349 17.7831 10.4129 17.638 9.93497 17.3944C9.84522 17.336 9.79585 17.3675 9.79136 17.4753C9.77864 17.6247 9.77864 17.775 9.79136 17.9245C9.885 18.6408 10.167 19.3193 10.6086 19.8907C11.0502 20.4621 11.6355 20.9059 12.3046 21.1767C12.4678 21.2466 12.6377 21.2993 12.8118 21.3339C12.3165 21.4315 11.8085 21.4467 11.3083 21.3788C11.2006 21.3564 11.1602 21.4148 11.2006 21.5181C11.8603 23.3149 13.292 23.8629 14.3422 24.1683C14.4858 24.1908 14.6294 24.1908 14.791 24.2267C14.791 24.2267 14.791 24.2267 14.7641 24.2537C14.4544 24.8197 13.2022 25.2015 12.6278 25.3991C11.5792 25.7761 10.4613 25.9202 9.35154 25.8214C9.1765 25.7944 9.13611 25.7989 9.09123 25.8214C9.04635 25.8438 9.09123 25.8933 9.1406 25.9382C9.365 26.0864 9.5894 26.2167 9.82278 26.3425C10.5175 26.7217 11.252 27.023 12.0129 27.2408C15.9534 28.3279 20.3875 27.5283 23.3451 24.5861C25.6699 22.2772 26.4867 19.0924 26.4867 15.9031C26.4867 15.7818 26.6348 15.7099 26.7201 15.647C27.3082 15.1884 27.8267 14.6467 28.2594 14.0389C28.3344 13.9483 28.3728 13.833 28.3672 13.7155C28.3672 13.6481 28.3672 13.6616 28.2819 13.6975Z" fill="white"/>
</svg>
