<svg width="38" height="38" viewBox="0 0 38 38" fill="none" xmlns="http://www.w3.org/2000/svg">
<rect y="0.00244141" width="37.8006" height="37.8006" rx="9" fill="#FF0000"/>
<path d="M29.4137 13.7036C29.1669 12.7758 28.4369 12.0438 27.508 11.7929C25.8284 11.3428 19.0896 11.3428 19.0896 11.3428C19.0896 11.3428 12.3542 11.3428 10.6712 11.7929C9.74575 12.0404 9.01565 12.7723 8.76543 13.7036C8.31641 15.3874 8.31641 18.9029 8.31641 18.9029C8.31641 18.9029 8.31641 22.4184 8.76543 24.1022C9.01222 25.03 9.74232 25.762 10.6712 26.0129C12.3542 26.463 19.0896 26.463 19.0896 26.463C19.0896 26.463 25.8284 26.463 27.508 26.0129C28.4334 25.7654 29.1635 25.0335 29.4137 24.1022C29.8628 22.4184 29.8628 18.9029 29.8628 18.9029C29.8628 18.9029 29.8628 15.3874 29.4137 13.7036Z" fill="white"/>
<path d="M16.937 22.1434L22.5344 18.9029L16.937 15.6624V22.1434Z" fill="#FF0000"/>
</svg>
